<svg xmlns="http://www.w3.org/2000/svg" viewBox="0 0 600 400"><g fill="none" transform="translate(1 1)"><path fill="#009b3a" stroke="#979797" d="M0 0h598v398H0z"/><path fill="#fedf00" d="m105 199.4 194.4 124.4 194.4-124.4L299.4 75z"/><ellipse cx="299.4" cy="199.4" fill="#002776" rx="81.976" ry="82.14"/><path fill="#fff" d="M224.425 166.176a200 200 0 0 1 28.131-1.976c48.754 0 93.413 17.558 128.024 46.707-.78 5.293-1.18 7.693-2.936 13.058-33.18-29.864-76.976-48.033-125.088-48.033-11.086 0-21.946.965-32.503 2.815.947-5.347 1.747-7.747 4.372-12.571"/><g fill="#009b3a"><path d="m255.652 173.968 7.024.248.048-1.452-5.684-.2.072-2 4.456.156.048-1.34-4.46-.18.056-1.564 5.352.188.036-1.424-6.688-.232zm9.904.432 1.336.116.464-5.344 1.092 5.48 1.2.108 2.024-5.2-.468 5.344 1.332.116.68-7.792-1.944-.172-2 5.2-1.072-5.488-1.944-.172zm16.176 1.82 5.772.98.228-1.32-4.452-.768.3-1.76 3.628.624.228-1.324-3.636-.612.208-1.2 4.312.744.228-1.32-5.632-.972zm48.384 10.124 2.712 1.184-.444 1.024-2.712-1.18z"/><path d="m331.804 187.08 1.024.448-1.556 3.584-1.024-.444zm22.312 13.584c-.4.66 0 1.396.948 2s1.6.58 1.852.156c.856-1.344-4.084-3.3-2.56-5.644 1.312-2 3.556-.444 4.4.096s2.204 1.936 1.148 3.548l-1.436-.916c.448-.708-.044-1.384-.8-1.864s-1.32-.68-1.756 0c-.728 1.092 4.112 3.156 2.628 5.488-1.096 1.72-2.996.968-4.268.156-1.08-.688-2.696-2.316-1.644-3.964zm-11.388-3.828 6.116 3.468.712-1.264-4.952-2.8.992-1.752 3.88 2.204.66-1.168-3.884-2.2.772-1.364 4.656 2.64.716-1.268-5.824-3.3zm19.764 9.364c-.452.636-.064 1.392.84 2.04s1.552.664 1.844.252c.92-1.296-3.904-3.512-2.264-5.768 1.416-1.94 3.576-.26 4.4.324s2.104 2.052.964 3.6l-1.388-.988c.488-.684.028-1.388-.696-1.908s-1.284-.744-1.756-.084c-.8 1.052 3.94 3.364 2.34 5.6-1.2 1.66-3.044.8-4.268-.064-1.044-.748-2.576-2.456-1.436-4.048zm-129.996-35.12c-.264-2.144-2.036-3.692-3.964-3.456s-3.272 2.168-3.012 4.312 2.036 3.692 3.964 3.452 3.272-2.164 3.012-4.308M229 169.128c2.652 0 2.652 4.768 0 4.768s-2.644-4.768 0-4.768m147.344 44.836c.992-1.916.4-4.196-1.324-5.092s-3.924-.064-4.916 1.856-.4 4.196 1.324 5.092 3.924.064 4.916-1.856m-1.776-3.6c2.188 1.504-.5 5.436-2.688 3.936s.496-5.42 2.688-3.9zm-122.464-42.728c-.864-1.388-2.596-1.452-2.596-1.452l-3.904.06.136 7.824s3.096 0 3.92-.08a3.6 3.6 0 0 0 2.42-1.388 3.8 3.8 0 0 0 .62-2.42 4.1 4.1 0 0 0-.596-2.544m-3.2 4.944h-1.752l-.084-4.916c1.6-.02 1.668-.02 2.296-.02 1.156.02 1.644.884 1.888 1.444q.101.705.112 1.416a2.3 2.3 0 0 1-.732 1.52 2.56 2.56 0 0 1-1.716.556zm-7.464-1.556a3.4 3.4 0 0 0 1.024-1.68 2.456 2.456 0 0 0-2.08-2.78l-.188-.02c-.8.032-4.8.312-4.8.312l.432 7.812 1.448-.1-.204-2.9 2.512-.176.604-.044s.776 1.276.852 2.064c.028.284.044.572.044.856h1.408a6 6 0 0 0-.364-2.224 4.4 4.4 0 0 0-.688-1.12m-.88-1.2c-.304.256-1.156.268-1.156.268l-2.4.16-.14-2c.368 0 2.284-.16 2.32-.16q.413-.004.824-.052c.235.027.455.128.628.288a.8.8 0 0 1 .316.672 1.1 1.1 0 0 1-.4.8zm83.34 13.096c.292-2.14-1.024-4.088-2.948-4.356s-3.716 1.256-4 3.392 1.024 4.092 2.944 4.36 3.708-1.256 4.004-3.396m-2.872-2.78c2.564.68 1.344 5.288-1.22 4.608s-1.344-5.292 1.22-4.608m-8.348-.252a3.4 3.4 0 0 0 1.52-1.256 2.46 2.46 0 0 0-1.092-3.304l-.148-.068c-.768-.232-4.62-1.272-4.62-1.272l-2.14 7.524 1.4.376.756-2.8 2.428.656.588.16s.316 1.456.132 2.224q-.096.42-.24.824l1.336.448c.272-.71.408-1.464.4-2.224a4.5 4.5 0 0 0-.32-1.288m-.432-1.436c-.372.14-1.2-.132-1.2-.132l-2.336-.64.524-1.94c.344.12 2.212.596 2.244.608.368.116.8.22.8.22.212.102.387.269.5.476.143.22.173.495.08.74a1.14 1.14 0 0 1-.612.668m28.788 12.948a3.4 3.4 0 0 0 1.6-1.12 2.46 2.46 0 0 0-.8-3.38l-.148-.084c-.748-.3-4.496-1.664-4.496-1.664l-2.768 7.316 1.36.496.992-2.732 2.364.86.572.208s.192 1.48-.06 2.228a7 7 0 0 1-.308.8l1.288.576a6.1 6.1 0 0 0 .568-2.18 4.5 4.5 0 0 0-.164-1.324m-.308-1.468a2.5 2.5 0 0 1-1.168-.228l-2.268-.836s.464-1.288.684-1.892c.332.152 2.152.8 2.184.8.36.148.772.288.772.288.209.125.373.312.468.536a.83.83 0 0 1 0 .74 1.12 1.12 0 0 1-.672.592m-37.652-12.656a3.43 3.43 0 0 0 1.488-1.292 2.45 2.45 0 0 0-1.32-3.34c-.776-.216-4.648-1.164-4.648-1.164l-1.96 7.576 1.408.344.688-2.824 2.444.6.592.144m.84-1.468c-.368.148-1.2-.104-1.2-.104l-2.348-.584.476-1.952c.348.112 2.224.544 2.26.556.372.104.8.2.8.2.216.096.395.259.512.464a.8.8 0 0 1 .096.736 1.12 1.12 0 0 1-.604.684z"/><path d="M332.116 187.16a6 6 0 0 0-.624-.216c-.608 1.152-1.96 1.976-3.164 1.148-2.192-1.5.496-5.436 2.688-3.932.475.312.773.832.8 1.4.332.144.692.208 1.024.36l.4.196a3.52 3.52 0 0 0-1.788-3.464c-1.72-.896-3.924-.068-4.916 1.852s-.4 4.196 1.324 5.092 3.924.064 4.916-1.852c.04-.076.072-.156.108-.232z"/></g><path fill="#fff" d="m327.904 172.852-1.736 1.26.664 2.044-1.736-1.26-1.736 1.26.664-2.044-1.736-1.26h2.144l.664-2.044.664 2.044zM229.14 183.56l2.064 1.504-.788 2.432 2.064-1.504 2.068 1.504-.792-2.432 2.068-1.504h-2.556l-.788-2.432-.788 2.432zm90.396 10.98 1.428 1.04-.544 1.684 1.428-1.04 1.428 1.04-.544-1.684 1.428-1.04h-1.768l-.544-1.684-.54 1.684zm-73.248 19.268.872.616-.336 1.04.868-.632.872.632-.332-1.02.868-.636h-1.076l-.332-1.024-.332 1.024zm-6.572 1.852-.776 2.432h-2.552l2.068 1.504-.792 2.432 2.068-1.504 2.064 1.504-.788-2.432 2.064-1.504h-2.552l-.788-2.432m-12.824 9.992 1.72 1.252-.656 2.028 1.72-1.256 1.72 1.256-.656-2.028 1.72-1.252h-2.128l-.656-2.028-.656 2.028zm38.584-23.86 1.688 1.228-.644 1.984 1.684-1.228 1.688 1.228-.644-1.984 1.688-1.228h-2.088l-.644-1.988-.644 1.988zm-11.024 24.532 1.556 1.132-.592 1.832 1.552-1.132 1.556 1.132-.592-1.832 1.552-1.132h-1.92l-.596-1.832-.592 1.832zm-2.312 8.596 1.428 1.04-.544 1.684 1.428-1.044 1.428 1.044-.544-1.684 1.428-1.04h-1.764l-.548-1.684-.536 1.684zm11.072 6.54 2.064 1.504-.788 2.432 2.064-1.504 2.064 1.504-.788-2.432 2.064-1.504h-2.552l-.788-2.432-.788 2.432zm33.364-29.488 1.736 1.264-.664 2.044 1.736-1.264 1.736 1.264-.664-2.044 1.736-1.264h-2.156l-.652-2.04-.664 2.04zm-7.792 7.4 1.432 1.04-.548 1.684 1.428-1.044 1.432 1.044-.548-1.684 1.432-1.04h-1.768l-.544-1.684-.548 1.684zm5.012 5.664.868.632-.332 1.024.868-.632.872.632-.332-1.024.868-.632h-1.076l-.332-1.024-.332 1.024zm12.256-5.884 1.736 1.264-.664 2.044 1.732-1.264 1.736 1.264-.66-2.044 1.732-1.264h-2.144l-.664-2.044-.652 2.044zM296.06 235.56l2.064 1.504-.788 2.432 2.064-1.504 2.064 1.504-.788-2.432 2.064-1.504h-2.552l-.788-2.432-.776 2.432zm2.216 27.748.664.48-.252.78.66-.48.664.48-.256-.78.664-.48h-.82l-.252-.78-.248.78zm16.86-18.556 1.428 1.044-.544 1.68 1.428-1.04 1.428 1.04-.544-1.68 1.428-1.044h-1.768l-.544-1.68-.54 1.68zm5.96 9.02 1.736 1.26-.664 2.044 1.736-1.264 1.736 1.264-.664-2.044 1.732-1.26h-2.144l-.66-2.044-.664 2.044zm10.784-6.112 1.432-1.04h-1.768l-.544-1.684-.54 1.684h-1.776l1.432 1.04-.548 1.684 1.432-1.04 1.428 1.04zm5.92-3.768 1.432 1.04-.548 1.684 1.432-1.04 1.428 1.04-.548-1.684 1.432-1.04h-1.768l-.544-1.68-.548 1.68zm-.284 7.768 1.736 1.264-.664 2.044 1.736-1.264 1.736 1.264-.664-2.044 1.736-1.264h-2.144l-.664-2.044-.664 2.044zm.692 8.58 1.428 1.04-.544 1.684 1.428-1.04 1.428 1.04-.544-1.684 1.428-1.04h-1.776l-.536-1.684-.54 1.684zm8.16-14.876 1.428 1.04-.544 1.684 1.428-1.04 1.428 1.04-.544-1.684 1.428-1.04h-1.768l-.544-1.684-.548 1.684zm6.064-4.256 1.736 1.26-.664 2.044 1.736-1.26 1.736 1.26-.664-2.044 1.736-1.26h-2.144l-.664-2.044-.652 2.044-2.104-.012m4.876-6.396 1.736 1.26-.664 2.044 1.736-1.26 1.732 1.26-.66-2.044 1.732-1.26h-2.144l-.664-2.044-.66 2.044zm-3.876-7.616 2.064 1.504-.788 2.432 2.064-1.504 2.064 1.504-.788-2.432 2.064-1.504h-2.552l-.788-2.432-.788 2.432zm12.508 1.24 1.428 1.04-.544 1.684 1.428-1.04 1.428 1.04-.544-1.684 1.428-1.04h-1.768l-.544-1.684-.54 1.684z"/></g></svg>