<svg xmlns="http://www.w3.org/2000/svg" viewBox="0 0 1000 1000"><style>g{stroke:#7b6f64}@media (prefers-color-scheme:light){g{stroke:#0d0d0d}}@media (prefers-color-scheme:dark){g{stroke:#ececec}}</style><defs><path id="B" d="M425 718.489q-49.782.087-68.206 12.973c-18.424 12.886-21.748 26.552-28.396 53.887"/><path id="C" d="M148.553 603.731q2.248 33.192 13.252 46.901c11.004 13.709 23.742 19.451 49.22 30.935"/><path id="D" d="M345.435 603.731q-106.844 38.718-133.463 77.836c-26.619 39.118-25.319 76.639-22.717 151.681"/><path id="E" d="M105.012 370.223Q136.962 376.049 154 399c17.038 22.951 18.359 32.301 21 51q-.855 24.043-16 45c-15.145 20.957-25.253 25.267-45.469 33.889"/><path id="F" d="M168 132q12.924 96.645 36.4 125.46c23.476 28.815 49.41 30.187 101.281 32.931"/><path id="G" d="M425 194q-56.655-.628-78.618-12.38c-21.963-11.752-30.418-25.797-47.327-53.887"/></defs><g fill="none" stroke-width="50"><g stroke-linecap="round" stroke-linejoin="round" transform="matrix(-1 0 0 1 976 25)"><use href="#B"/><use href="#C"/><use href="#D"/><use href="#E"/><path d="M425 421.116q-47.64 36.8-72 37.884c-24.36 1.084-37.907-9.61-65-31q-31.247-17.894-51-14c-19.753 3.894-33.835 14.596-62 36"/><use href="#F"/><use href="#G"/><path d="M425 1Q312.196-.667 265.925 21.956C219.654 44.579 202.437 73.719 168 132q-60.25 32.377-79.079 65.586c-18.829 33.209-21.703 59.061-27.45 110.767Q7.517 358.248.892 435.086c-6.625 76.838 7.572 106.443 35.969 165.651Q23.61 705.517 69.044 765.39C114.478 825.263 139.318 827.843 189 833q51.384 77.784 94 99c42.616 21.216 75.744 20.477 142 19m0-950v950"/></g><g stroke-linecap="round" stroke-linejoin="round"><use x="25" y="25" href="#B"/><use x="25" y="25" href="#C"/><use x="25" y="25" href="#D"/><use x="25" y="25" href="#E"/><path d="M450 446.116q-42.9-41.999-67.26-40.914c-24.36 1.085-38.957 16.357-68.151 46.901q-31.36 27.04-51.114 30.935c-19.754 3.895-34.327-.083-63.475-8.038"/><use x="25" y="25" href="#F"/><use x="25" y="25" href="#G"/><path d="M450 26q-112.804-1.667-159.075 20.956C244.654 69.579 227.437 98.719 193 157q-60.25 32.377-79.079 65.586c-18.829 33.209-21.703 59.061-27.45 110.767q-53.953 49.895-60.579 126.733c-6.626 76.838 7.572 106.443 35.969 165.651Q48.609 730.517 94.044 790.39C139.479 850.263 164.318 852.843 214 858q51.384 77.784 94 99c42.616 21.216 75.744 20.477 142 19m0-950v950"/></g></g></svg>