<svg xmlns="http://www.w3.org/2000/svg" viewBox="0 0 2807 840"><defs><linearGradient id="a" x1="0%" x2="100%" y1="50%" y2="50%"><stop offset="0%" stop-color="#3882f7"/><stop offset="33.333%" stop-color="#328fb7"/><stop offset="66.667%" stop-color="#2e8fb7"/><stop offset="100%" stop-color="#28a545"/></linearGradient></defs><path fill="url(#a)" stroke="transparent" stroke-opacity=".5" stroke-width="5" d="M51 685c23.748 0 43-19.252 43-43s-19.252-43-43-43-43 19.252-43 43 19.252 43 43 43zm338.202 139-1.563-224.214 94.573 155.386h57.577l89.623-153.3L628.109 824H712V459h-82.849L514.257 660.011 393.11 459H310v365zM1011 824V459h-86v365zm296.523 0V597.179L1457.656 824H1543V459h-83.783v223.693L1309.344 459H1224v365zm573.729 0q56.885 0 99.941-22.943c43.056-22.943 51.014-36.674 66.931-64.136S2072 677.652 2072 641.5q0-53.968-24.007-95.03c-24.007-41.062-38.315-48.797-66.931-64.266S1919.175 459 1881.252 459H1756v365zm-4.207-80H1843V540h34.045q46.52 0 75.237 26.217C1980.999 592.434 1981 608.957 1981 642q0 49.826-28.718 75.913C1923.564 744 1908.058 744 1877.045 744zm517.348-292q41.23 0 76.979 12.111c35.749 12.111 42.969 19.056 57.408 32.947l-42.273 62.509-.554-.577q-14.781-15.23-39.24-24.687-24.921-9.636-51.276-9.637-25.834 0-41.491 9.897c-15.657 9.897-15.657 15.454-15.657 26.566q0 13.544 12.525 21.357c12.525 7.813 23.398 11.026 45.144 17.45l31.836 9.376 1.119.329q55.235 16.327 80.036 40.953Q2534 675.467 2534 714.796q0 34.64-17.744 61.076c-17.744 26.436-28.574 31.385-50.232 41.282S2418.661 832 2388.913 832q-41.49 0-80.633-12.241c-39.143-12.241-48.188-19.968-66.281-35.422l40.708-64.592.609.642q11.34 11.832 28.617 20.455 17.745 8.856 37.968 13.674c20.223 4.818 26.573 4.818 39.273 4.818q26.616 0 43.578-8.986c16.962-8.986 16.962-14.716 16.962-26.175q0-14.064-12.134-23.571c-12.134-9.507-23.181-12.545-45.274-18.622l-31.314-8.855-1.129-.309q-55.742-15.329-80.156-42.145-24.66-27.087-24.66-65.374 0-32.817 18.136-58.341c18.136-25.524 28.617-30.43 49.58-40.24s44.84-14.716 71.63-14.716zM2756 599c23.748 0 43 19.252 43 43s-19.252 43-43 43-43-19.252-43-43 19.252-43 43-43zM240.72 373 374 8h-95.795l-85.643 254.979L105.357 8H8l134.321 365h98.398zm289.082 0 25.263-74.043h130.744L711.593 373H809L671.485 8H571.213L435 373zM666 227h-91l45.24-126zm351.36 146V238.732h31.995L1130.512 373H1233l-98.065-151.996q33.555-9.907 55.796-35.588c22.241-25.681 22.24-39.151 22.24-66.091q0-52.404-36.547-81.864C1139.877 8.001 1119.501 8 1078.748 8H931v365zm50.873-204H1017V79h53.062q26.923 0 41.43 11.055C1125.999 101.11 1126 108.913 1126 124.52s-5.141 26.922-15.422 33.945S1086.181 169 1068.233 169zM1451 373V8h-86v365zm216.802 0 25.263-74.043h130.744L1849.593 373H1947L1809.485 8h-100.272L1573 373zM1804 227h-91l45.24-126zm348.523 146V146.179L2302.656 373H2388V8h-83.783v223.693L2154.344 8H2069v365zm549.428 0V86.996H2799V8h-281v78.996h97.049V373z"/></svg>