<svg xmlns="http://www.w3.org/2000/svg" width="32" height="32"><path fill="#1446C8" d="M29.462 22.643c-1.207-1.297-3.467-3.25-3.467-9.643 0-4.856-3.405-8.744-7.996-9.697V2A2 2 0 1 0 14 2v1.303C9.41 4.256 6.004 8.143 6.004 13c0 6.394-2.26 8.346-3.467 9.643A1.95 1.95 0 0 0 2 24c.007 1.025.811 2 2.006 2h23.988c1.195 0 2-.975 2.006-2a1.95 1.95 0 0 0-.538-1.357M6.221 23c1.326-1.748 2.776-4.646 2.783-9.964L9 13a7 7 0 1 1 14 0l-.004.036c.007 5.319 1.457 8.217 2.784 9.964zM16 32a4 4 0 0 0 3.997-4h-7.996A4 4 0 0 0 16 32"/></svg>