<svg xmlns="http://www.w3.org/2000/svg" width="32" height="32"><path fill="#0A0" d="M16 5c-3.309 0-6 2.691-6 6a1 1 0 1 0 2 0c0-2.206 1.795-4 4-4a1 1 0 1 0 0-2m-4.996 23.7c0 .197.058.388.167.552l1.532 2.303a1 1 0 0 0 .833.446h4.928a1 1 0 0 0 .833-.446l1.531-2.303a1 1 0 0 0 .168-.552l.003-2.7h-9.998zM16 0C9.608 0 5 5.186 5 11a10.94 10.94 0 0 0 2.723 7.237c1.04 1.187 2.67 3.675 3.276 5.76V24h3v-.007c0-.298-.045-.594-.134-.88-.35-1.113-1.427-4.048-3.886-6.854A7.98 7.98 0 0 1 8.003 11C7.991 6.398 11.733 3 16 3c4.412 0 8 3.589 8 8a7.98 7.98 0 0 1-1.978 5.26c-2.444 2.787-3.526 5.716-3.881 6.84a3 3 0 0 0-.139.894V24h3v-.003c.605-2.085 2.236-4.573 3.277-5.76A10.94 10.94 0 0 0 27 11c0-6.075-4.925-11-11-11"/></svg>