<svg xmlns="http://www.w3.org/2000/svg" width="32" height="32"><path fill="#1446C8" d="M23.157 11.663 22.801 9h1.7c.825 0 1.5-.675 1.5-1.5v-6c0-.825-.675-1.5-1.5-1.5h-17C6.674 0 6 .675 6 1.5v6C6 8.325 6.674 9 7.5 9h1.7l-.357 2.663C5.85 13.713 4 16.92 4 20.501c0 .825.675 1.5 1.5 1.5h9v6.5q-.001.084.026.157l1 3a.5.5 0 0 0 .95 0l1-3a.5.5 0 0 0 .025-.157v-6.5h9c.825 0 1.5-.675 1.5-1.5 0-3.581-1.85-6.788-4.844-8.838m-16 7.338c.518-2.406 2.225-4.375 4.468-5.488l1-7.513H9V3h14v3h-3.624l1 7.513c2.237 1.113 3.95 3.088 4.469 5.488z"/></svg>